<svg width="174" height="37" fill="none" xmlns="http://www.w3.org/2000/svg">
  <path d="M0 10.466h7.98L7.72 18.23h.087c1.178-4.492 2.53-8.155 8.896-8.155 5.015 0 8.243 2.573 8.81 6.803h.043c1.047-4.23 3.925-6.803 8.897-6.803 5.712 0 8.94 3.576 8.94 9.681v16.79h-8.025V21.587c0-3.053-1.57-4.884-4.317-4.884s-5.408 2.442-5.408 7.239v12.603h-7.98V21.587c0-3.053-1.614-4.884-4.317-4.884-2.704 0-5.364 2.485-5.364 7.37v12.472H0V10.466ZM46.663 23.55c0-8.505 5.582-13.476 14.173-13.476 8.59 0 14.173 4.971 14.173 13.475s-5.582 13.388-14.173 13.388c-8.591 0-14.173-4.927-14.173-13.388Zm20.322 0c0-4.623-2.268-7.37-6.15-7.37-3.88 0-6.148 2.747-6.148 7.37 0 4.622 2.268 7.282 6.149 7.282 3.881 0 6.149-2.704 6.149-7.283ZM86.478 31.137h-.088c.088 1.527.175 4.143.262 5.408h-7.98V0h7.98v10.902c0 1.222-.087 4.885-.13 6.15h.086c1.003-3.446 4.318-6.978 8.984-6.978 7.414 0 11.818 4.797 11.818 12.908 0 8.81-4.448 13.955-11.862 13.955-4.753 0-8.155-2.485-9.07-5.8Zm12.908-7.893c0-4.448-2.224-7.065-5.975-7.065-3.75 0-6.759 2.66-6.759 7.152v1.221c0 3.969 2.573 6.28 6.803 6.28s5.93-2.791 5.93-7.588ZM111.16 10.466h7.98v26.079h-7.98V10.466ZM123.5 0h7.981v36.545H123.5V0ZM135.712 0h8.024v36.545h-8.024V0ZM147.355 27.78h7.196c0 2.398 1.221 4.011 5.8 4.011s5.626-1.22 5.626-3.14c0-.915-.48-1.657-1.832-2.005a46.005 46.005 0 0 0-6.062-.698c-3.75-.35-6.672-.916-8.242-2.006a6.37 6.37 0 0 1-2.486-5.146c0-5.626 5.8-8.722 13.04-8.722 8.547 0 12.428 3.27 12.428 9.332h-7.064c-.044-2.747-1.309-4.186-5.277-4.186-3.969 0-5.146 1.22-5.146 3.009 0 1.09.436 1.962 1.875 2.311 2.137.372 4.291.634 6.454.785 3.227.35 5.495.654 7.414 1.745a5.98 5.98 0 0 1 2.922 5.19c0 5.45-4.71 8.677-13.606 8.677-8.897 0-13.04-3.88-13.04-9.158Z" fill="#6515DD"/>
</svg>
